<?xml version="1.0" encoding="utf-8"?>
<!-- Generator: Adobe Illustrator 18.0.0, SVG Export Plug-In . SVG Version: 6.00 Build 0)  -->
<!DOCTYPE svg PUBLIC "-//W3C//DTD SVG 1.1//EN" "http://www.w3.org/Graphics/SVG/1.1/DTD/svg11.dtd">
<svg version="1.1" id="Слой_1" xmlns="http://www.w3.org/2000/svg" xmlns:xlink="http://www.w3.org/1999/xlink" x="0px" y="0px"
	 viewBox="0 0 768 1024" enable-background="new 0 0 768 1024" xml:space="preserve">
<path fill="#000000"      d="
	M715.4,687.8l-12.2-19.7c9.9-10.3,12.2-27.4,12.2-27.4c-36.5-56.7-66.7-78.6-66.7-78.6l-50.1-60.3c-48.6-55.1-72.6-67.7-72.6-67.7
	c-12.5-5.2-46.4-15.1-46.4-15.1c5.9,0.4,39.8-1.8,39.8-1.8c12.5-0.4,14-3.3,15.8-5.9c1.8-2.6,3.3-14,3.3-14
	c1.8-5.2,1.1-64.9,1.1-64.9c0,5.2,9.9,25.1,9.9,25.1c4.8,12.5,0.4,21.7,0.4,21.7c2.9-1.5,5.2-11.1,5.2-11.1
	c4.8,4.8,2.2,18.8,2.2,18.8c5.2-4.4,3.3-19.9,3.3-19.9c13.6,16.2,10.3,33.5,10.3,33.5c7-5.5-5.5-40.5-5.5-40.5
	c1.8,0.7,5.2,11.8,5.2,11.8c1.1-5.5-5.2-22.1-5.2-22.1l2.9-0.4c-3.7-5.9,0.4-14.7,0.4-14.7c5.5,1.1,3.3,20.6,3.3,20.6
	c1.5-3.3,4.4-14,4.4-14c2.2,4.1-1.1,13.3-1.1,13.3c4.1-4.8,5.5-13.3,5.5-13.3c-0.7,16.6,7,20.3,7,20.3c13.6,9.6,11.8,18.1,11.8,18.1
	c-2.7,5.7-11.8,0.4-11.8,0.4c1.8,7.7,12.5,4.8,12.5,4.8c8.5-6.6-4.8-22-4.8-22c-9.3-7.5-6.2-18.7-6.2-18.7
	c3.7-12.5-2.3-22.7-2.3-22.7c3.3-3.7,1.8-13.3,1.8-13.3c3.3,0.7,2.9,14.4,2.9,14.4c4.8-7-0.4-20.6-0.4-20.6
	c7.4,3.3,7.4,18.1,7.4,18.1c-2.4,17.1,8.5,25.4,8.5,25.4c6.6,2.2,7.4,11.4,7.4,11.4c3.7-3.7,0.4-11.8,0.4-11.8
	c8.1,4.1,6.6,17.3,6.6,17.3c8.1-11.1-9.6-24.3-9.6-24.3c-6.6-4.4-3.3-15.8-3.3-15.8c4.4-10.7-11.1-22.5-11.1-22.5
	c-8.8-4.8-7.8-11.1-7.8-11.1c3.5-17.1-14.7-27.6-14.7-27.6c-14.7-10.5-15-25.5-15-25.5c0-15.4-10.9-20.7-10.9-20.7
	c-12.1-5.1-14.6-14.6-14.6-14.6c0-9.2-6-14.6-6-14.6c-12.7-10.2-12.5-20.1-12.5-20.1c0.6-23.7-7.7-33.1-7.7-33.1
	c-13-9.5-10.1-23.6-10.1-23.6c1.8-8.9-5.4-41.4-5.4-41.4C458.8-16,387.7,4.1,387.7,4.1c-83.4,7.1-62.3,83.4-62.3,83.4
	c-5,4.2-3.5,25.7-3.5,25.7c-5.2,8.1-2.2,14.7-2.2,14.7c-5.2,4.1-2.2,12.2-2.2,12.2c-0.4,2.9-2.9,7.4-2.9,7.4
	c-9.2,7.4-1.8,28.7-1.8,28.7c5.2,15.5-1.1,16.6-1.1,16.6c-20.6,17.7-14.4,26.2-14.4,26.2c3.3,7.7-5.5,16.6-5.5,16.6
	c-11.1,7-8.1,14.4-8.1,14.4l-15.5,6.3c0.4,13.6,9.2,18.8,9.2,18.8c-4.1,15.1,9.9,22.5,9.9,22.5c-2.2,14.4,11.8,14,11.8,14
	c-3.7,7-2.6,32.1-2.6,32.1c-16.2-12.2-31.7-41.3-31.7-41.3c-6.7-11-2.2-24.3-2.2-24.3c0-25.8-18.1-42.7-18.1-42.7
	c8.5-22.8,4.1-30.2,4.1-30.2c5.5-1.8,2.9-9.9,2.9-9.9l0.7-2.9c-3.7-7.4-14.7-5.5-14.7-5.5l-2.9,4.1c-5.5,2.6-3.3,7.7-3.3,7.7
	l-31.7,2.9L94.1,291.6c-3.3,4.8,8.5,17.7,8.5,17.7c1.1-3.3,9.2-4.4,9.2-4.4c7,3.7,23.6,18.8,23.6,18.8l-4.8,9.2
	c7.7,7.4,16.2,3.7,16.2,3.7l42-65.6c0,5.2,3.7,10.3,3.7,10.3l-9.6,23.6c12.2,17.7,30.2,12.2,30.2,12.2l7.4-17.7l2.9,1.5
	c6.3,1.8,8.5,14,8.5,14c3.3,17.7,18.1,48.6,18.1,48.6c9.6,22.1,40.9,54.2,40.9,54.2c10.3,2.6,38-21,38-21l2.2,11.4l-1.5,1.5
	l-1.5,12.5c-2.2,7.4-15.5,18.1-15.5,18.1c-18.4,16.2-38,43.1-38,43.1c-5.2-4.1-9.2-1.8-9.2-1.8c-14.7,16.2-12.9,44.2-12.9,44.2
	c-11.4,14.7-36.8,70.4-36.8,70.4c-24,36.1-25.8,59.7-25.8,59.7c10.7,11.1,19.9,13.6,19.9,13.6c-15.1,12.9-41.6,55.3-41.6,55.3
	c1.5,7.4,20.6,13.3,20.6,13.3l-2,3.3C211.8,766.5,261,772,261,772v2.7c7.9,13.6,40.2,13.6,40.2,13.6c12.2-0.7,25.2,3.3,25.2,3.3
	c15.1,6.3,45.5,10.7,45.5,10.7c-0.4,11.1,15.9,69.3,15.9,69.3c5.5,16.9,6.3,50.9,6.3,50.9c-6.6,2.6-3.7,8.1-3.7,8.1l-25,21.4
	c-38.3,21.4-31.7,27.6-31.7,27.6c13.6,16.6,52.3,2.2,52.3,2.2c15.5-11.4,25.4-11,25.4-11c32.4,1.1,34.7-6.7,34.7-6.7
	c1.1-2.6-2.2-7-2.2-7c-1.8-6.6-4.1-14-4.1-14c-4.1-8.1-6.3-27.3-6.3-27.3c-3.3-9.2,1.1-75.5,1.1-75.5l30.2,69.6
	c7.4,18.8,5.9,38.7,5.9,38.7c-4.1,2.2-1.5,11.4-1.5,11.4s-8.5,19.2-11.1,21.4c-2.6,2.2-12.2,27.3-12.2,27.3
	c-8.8,15.1,23.6,12.2,23.6,12.2c21.4,0.2,43.3-21.6,51.2-32.9c6.5-9.4,2.6-16.1,2.6-16.1c1.1-5.9-4.1-12.5-4.1-12.5
	c0.7-2.2-4.1-14-4.1-14c-3.3-5.5-6.6-31.7-6.6-31.7c-2.6-22.5-3.3-48.6-3.3-48.6c0.7-21.4-10-69.3-10-69.3
	c3.7-4.1,32.1-6.6,32.1-6.6c34.3,0.7,38-5.5,38-5.5c6.3-3.3,21-8.8,21-8.8c23.2-4.4,23.2-7.4,23.2-7.4l-6.3-23.2
	c2.2-8.1,19.2-8.1,19.2-8.1l9.9,17.7c7.7,2.2,28.7-7.7,28.7-7.7c4.4-4.8,15.8-8.5,15.8-8.5c14.4-6.6,18.1-11.2,18.1-11.2l-10.9-19.5
	h7.9C718.7,692,715.4,687.8,715.4,687.8z M482.5,340.9c0,0,2.6,19.9,7,23.2c0,0-9.2,2.6-12.2,4.4L482.5,340.9z"/>
</svg>
